<?xml version="1.0" encoding="UTF-8" standalone="no"?>
<!-- Created with Inkscape (http://www.inkscape.org/) -->

<svg
   width="195"
   height="151"
   viewBox="8 55 195 151"
   version="1.1"
   id="svg1"
   xml:space="preserve"
   inkscape:version="1.4.3 (0d15f75, 2025-12-25)"
   sodipodi:docname="vspl.svg"
   xmlns:inkscape="http://www.inkscape.org/namespaces/inkscape"
   xmlns:sodipodi="http://sodipodi.sourceforge.net/DTD/sodipodi-0.dtd"
   xmlns="http://www.w3.org/2000/svg"
   xmlns:svg="http://www.w3.org/2000/svg"><sodipodi:namedview
     id="namedview1"
     pagecolor="#ffffff"
     bordercolor="#000000"
     borderopacity="0.25"
     inkscape:showpageshadow="2"
     inkscape:pageopacity="0.0"
     inkscape:pagecheckerboard="0"
     inkscape:deskcolor="#d1d1d1"
     inkscape:document-units="mm"
     inkscape:zoom="2.0266817"
     inkscape:cx="426.31262"
     inkscape:cy="314.30688"
     inkscape:window-width="1512"
     inkscape:window-height="949"
     inkscape:window-x="0"
     inkscape:window-y="33"
     inkscape:window-maximized="0"
     inkscape:current-layer="layer1" /><defs
     id="defs1" /><g
     inkscape:label="Layer 1"
     inkscape:groupmode="layer"
     id="layer1"><path
       style="fill:#c9a24a;fill-opacity:1"
       d="M 72.164573,205.11372 C 42.370439,204.20416 16.541944,184.67784 8.6959274,157.13148 c -0.9868762,-3.4648 -1.0769063,-3.25219 1.4569266,-3.4405 2.801957,-0.20822 25.175075,-0.004 27.832031,0.25463 8.886732,0.86351 8.187861,1.0257 6.318529,-1.46638 -7.045432,-9.39251 -11.552189,-22.78885 -12.384251,-36.81218 -0.824599,-13.89753 -0.110409,-24.31557 1.671191,-24.377986 9.329092,-0.326833 21.661072,3.290213 30.078125,8.822096 1.396484,0.91781 2.593489,1.60731 2.660011,1.53224 0.06652,-0.0751 0.447921,-1.23514 0.847553,-2.577909 4.694651,-15.774116 17.980732,-31.50685 35.936307,-42.554033 2.36224,-1.453373 1.96238,-1.461499 4.52516,0.09195 17.35163,10.517856 30.28795,25.68324 35.49267,41.608425 1.11309,3.405764 1.10797,3.392714 1.32973,3.392714 0.10078,0 0.81648,-0.42712 1.59044,-0.94916 9.00033,-6.070783 19.97427,-9.397287 31.01572,-9.401725 1.92109,-7.72e-4 1.93586,0.07318 1.92999,9.667295 -0.0156,25.47662 -3.73086,40.31703 -13.00642,51.95312 -1.47108,1.84546 -1.47596,1.84214 2.17103,1.48019 4.45962,-0.44261 8.77531,-0.58601 21.46387,-0.71323 15.07103,-0.15111 13.67896,-0.78851 11.65334,5.33586 -8.14984,24.64068 -28.35969,41.33442 -55.18753,45.58599 -3.83723,0.60811 -58.667002,1.01665 -73.925777,0.55083 z m 24.769088,-7.68031 c 3.064266,-0.37342 3.057034,-0.52172 -0.238175,-4.88414 C 80.978037,171.74148 58.135272,161.61789 26.624968,161.495 c -8.466497,-0.033 -7.983189,-0.48044 -5.238301,4.84932 9.415973,18.28302 29.0749,30.061 52.340406,31.35798 4.323485,0.24102 20.566778,0.0528 23.206588,-0.26889 z m 44.176229,-0.10951 c 21.6575,-2.12897 42.23461,-15.96336 49.21685,-33.08947 1.24137,-3.04484 2.17799,-2.72563 -7.66412,-2.61196 -29.69748,0.34299 -50.14877,9.035 -66.74406,28.36692 -4.92766,5.74025 -5.66376,7.27498 -3.51961,7.33824 0.4834,0.0143 1.75781,0.0932 2.83203,0.17549 2.88283,0.22075 23.24457,0.0797 25.87891,-0.17922 z m -35.67033,-9.92833 c 0.054,-0.18799 0.32936,-1.30859 0.61191,-2.49024 0.28255,-1.18164 1.03134,-4.25781 1.66398,-6.83593 6.7189,-27.38076 7.54703,-32.2322 7.75247,-45.41588 0.14474,-9.28886 1.22222,-8.4464 -10.68616,-8.35529 -10.791038,0.0826 -9.830412,-0.63933 -9.823561,7.38219 0.01076,12.59759 1.561231,22.05189 7.703721,46.97491 1.97944,8.03155 2.50561,9.68721 2.77764,8.74024 z M 94.566396,174.99323 c -0.06358,-0.67139 -0.385218,-2.49512 -0.714751,-4.05274 -1.787295,-8.44807 -3.304306,-12.64493 -6.436596,-17.80705 -0.760809,-1.25383 -1.383738,-2.30852 -1.384287,-2.34375 -5.49e-4,-0.0352 -1.738072,-1.82186 -3.861162,-3.97029 -10.893562,-11.02362 -15.791846,-21.14013 -16.761242,-34.61728 -0.129816,-1.80478 -0.129816,-1.80478 -1.325472,-2.84342 -5.99085,-5.20411 -16.459554,-9.882728 -22.924173,-10.24515 -1.80664,-0.101285 -1.80664,-0.101285 -1.803328,5.93119 0.01419,25.84085 7.292222,42.91487 22.074136,51.78516 0.91701,0.55028 5.750995,3.01673 10.742187,5.48101 11.035299,5.4484 14.105008,7.30675 19.803327,11.98864 2.764517,2.27139 2.740153,2.26487 2.591361,0.69368 z m 23.701774,-0.63412 c 6.40447,-5.3121 8.63648,-6.59397 26.97239,-15.49068 17.81028,-8.64167 25.93659,-25.77482 25.94581,-54.70296 0.002,-5.824777 0.31303,-5.544983 -4.88117,-4.388958 -6.85351,1.525318 -12.01578,3.881428 -17.46437,7.970918 -3.69601,2.77406 -3.39294,2.33388 -3.63735,5.2829 -1.04099,12.56041 -5.63085,22.22736 -15.3476,32.32443 -8.68395,9.02385 -11.14184,14.10705 -13.92976,28.80839 -0.12223,0.64453 -0.2644,1.36963 -0.31593,1.61133 -0.16482,0.77312 0.3499,0.49904 2.65798,-1.41537 z M 86.437774,138.07916 c 0.27083,-14.60921 0.321145,-15.23012 1.422469,-17.55398 1.874339,-3.95497 3.171958,-4.27219 17.476037,-4.27219 13.17863,0 13.44022,0.0365 15.78729,2.19991 2.48418,2.28983 2.66767,3.10702 2.79158,12.43248 0.12041,9.06196 -0.006,8.62725 1.92739,6.6178 19.73061,-20.50461 12.78504,-49.744312 -16.86156,-70.984434 -4.1659,-2.984633 -3.36905,-2.958212 -7.1395,-0.236723 -19.427212,14.022435 -29.923247,32.059798 -28.024677,48.160207 1.089113,9.23599 4.425657,16.22395 11.192678,23.44162 1.171309,1.24931 1.408153,1.2817 1.428293,0.19531 z m 16.488516,-29.94095 c -8.986393,-1.94447 -11.951581,-12.953058 -5.147443,-19.110449 8.138783,-7.365172 21.060843,0.574578 18.243803,11.209609 -1.47315,5.56149 -7.39553,9.13438 -13.09636,7.90084 z"
       id="path4" /></g></svg>
