<?xml version="1.0" encoding="UTF-8" standalone="no"?>
<!-- Created with Inkscape (http://www.inkscape.org/) -->

<svg
   width="210mm"
   height="210mm"
   viewBox="0 0 210 210"
   version="1.1"
   id="svg1"
   xml:space="preserve"
   inkscape:version="1.4.3 (0d15f75, 2025-12-25)"
   sodipodi:docname="logo.svg"
   xmlns:inkscape="http://www.inkscape.org/namespaces/inkscape"
   xmlns:sodipodi="http://sodipodi.sourceforge.net/DTD/sodipodi-0.dtd"
   xmlns="http://www.w3.org/2000/svg"
   xmlns:svg="http://www.w3.org/2000/svg"><sodipodi:namedview
     id="namedview1"
     pagecolor="#ffffff"
     bordercolor="#000000"
     borderopacity="0.25"
     inkscape:showpageshadow="2"
     inkscape:pageopacity="0.0"
     inkscape:pagecheckerboard="0"
     inkscape:deskcolor="#d1d1d1"
     inkscape:document-units="mm"
     inkscape:zoom="0.49052888"
     inkscape:cx="287.44485"
     inkscape:cy="260.94284"
     inkscape:window-width="1512"
     inkscape:window-height="847"
     inkscape:window-x="0"
     inkscape:window-y="34"
     inkscape:window-maximized="0"
     inkscape:current-layer="layer1" /><defs
     id="defs1" /><g
     inkscape:label="Layer 1"
     inkscape:groupmode="layer"
     id="layer1"><path
       style="fill:#DAA236;fill-opacity:1"
       d="M 71.883668,179.74134 C 42.089534,178.83178 16.261039,159.30546 8.4150227,131.7591 c -0.9868762,-3.4648 -1.0769063,-3.25219 1.4569266,-3.4405 2.8019567,-0.20822 25.1750747,-0.004 27.8320307,0.25463 8.886732,0.86351 8.187861,1.0257 6.318529,-1.46638 C 36.977077,117.71434 32.47032,104.318 31.638258,90.294662 30.813659,76.397142 31.527849,65.9791 33.309449,65.916684 c 9.329092,-0.326833 21.661072,3.290213 30.078125,8.822098 1.396484,0.91781 2.593489,1.60731 2.660011,1.53224 0.06652,-0.0751 0.447921,-1.23514 0.847553,-2.57791 4.694651,-15.774117 17.980732,-31.506851 35.936302,-42.554034 2.36224,-1.453373 1.96238,-1.461499 4.52516,0.09195 17.35163,10.517856 30.28795,25.68324 35.49267,41.608424 1.11309,3.40576 1.10797,3.39271 1.32973,3.39271 0.10078,0 0.81648,-0.42712 1.59044,-0.94916 9.00033,-6.070778 19.97427,-9.397282 31.01572,-9.40172 1.92109,-7.72e-4 1.93586,0.07318 1.92999,9.66729 -0.0156,25.476628 -3.73086,40.317038 -13.00642,51.953128 -1.47108,1.84546 -1.47596,1.84214 2.17103,1.48019 4.45962,-0.44261 8.77531,-0.58601 21.46387,-0.71323 15.07103,-0.15111 13.67896,-0.78851 11.65334,5.33586 -8.14984,24.64068 -28.35969,41.33442 -55.18753,45.58599 -3.83723,0.60811 -58.666997,1.01665 -73.925772,0.55083 z m 24.769088,-7.68031 c 3.064266,-0.37342 3.057034,-0.52172 -0.238175,-4.88414 -15.717449,-20.80779 -38.560214,-30.93138 -70.070518,-31.05427 -8.466497,-0.033 -7.983189,-0.48044 -5.238301,4.84932 9.415973,18.28302 29.0749,30.061 52.340406,31.35798 4.323485,0.24102 20.566778,0.0528 23.206588,-0.26889 z m 44.176224,-0.10951 c 21.6575,-2.12897 42.23461,-15.96336 49.21685,-33.08947 1.24137,-3.04484 2.17799,-2.72563 -7.66412,-2.61196 -29.69748,0.34299 -50.14877,9.035 -66.74406,28.36692 -4.92766,5.74025 -5.66376,7.27498 -3.51961,7.33824 0.4834,0.0143 1.75781,0.0932 2.83203,0.17549 2.88283,0.22075 23.24457,0.0797 25.87891,-0.17922 z m -35.67033,-9.92833 c 0.054,-0.18799 0.32936,-1.30859 0.61191,-2.49024 0.28255,-1.18164 1.03134,-4.25781 1.66398,-6.83593 6.7189,-27.38076 7.54703,-32.2322 7.75247,-45.41588 0.14474,-9.288868 1.22222,-8.446408 -10.68616,-8.355298 -10.791033,0.0826 -9.830407,-0.63933 -9.823556,7.382198 0.01076,12.59759 1.561231,22.05189 7.703716,46.97491 1.97944,8.03155 2.50561,9.68721 2.77764,8.74024 z M 94.285491,149.62085 c -0.06358,-0.67139 -0.385218,-2.49512 -0.714751,-4.05274 -1.787295,-8.44807 -3.304306,-12.64493 -6.436596,-17.80705 -0.760809,-1.25383 -1.383738,-2.30852 -1.384287,-2.34375 -5.49e-4,-0.0352 -1.738072,-1.82186 -3.861162,-3.97029 C 70.995133,110.4234 66.096849,100.30689 65.127453,86.829742 c -0.129816,-1.80478 -0.129816,-1.80478 -1.325472,-2.84342 -5.99085,-5.20411 -16.459554,-9.88273 -22.924173,-10.24515 -1.80664,-0.10129 -1.80664,-0.10129 -1.803328,5.93119 0.01419,25.840848 7.292222,42.914868 22.074136,51.785158 0.91701,0.55028 5.750995,3.01673 10.742187,5.48101 11.035299,5.4484 14.105008,7.30675 19.803327,11.98864 2.764517,2.27139 2.740153,2.26487 2.591361,0.69368 z m 23.701769,-0.63412 c 6.40447,-5.3121 8.63648,-6.59397 26.97239,-15.49068 17.81028,-8.64167 25.93659,-25.77482 25.94581,-54.702958 0.002,-5.82478 0.31303,-5.54499 -4.88117,-4.38896 -6.85351,1.52532 -12.01578,3.88143 -17.46437,7.97092 -3.69601,2.77406 -3.39294,2.33388 -3.63735,5.2829 -1.04099,12.560408 -5.63085,22.227358 -15.3476,32.324428 -8.68395,9.02385 -11.14184,14.10705 -13.92976,28.80839 -0.12223,0.64453 -0.2644,1.36963 -0.31593,1.61133 -0.16482,0.77312 0.3499,0.49904 2.65798,-1.41537 z M 86.156869,112.70678 c 0.27083,-14.609218 0.321145,-15.230128 1.422469,-17.553988 1.874339,-3.95497 3.171958,-4.27219 17.476032,-4.27219 13.17863,0 13.44022,0.0365 15.78729,2.19991 2.48418,2.28983 2.66767,3.10702 2.79158,12.432488 0.12041,9.06196 -0.006,8.62725 1.92739,6.6178 19.73061,-20.504618 12.78504,-49.744312 -16.86156,-70.984434 -4.1659,-2.984633 -3.36905,-2.958212 -7.1395,-0.236723 -19.427207,14.022435 -29.923242,32.059799 -28.024672,48.160199 1.089113,9.23599 4.425657,16.223958 11.192678,23.441628 1.171309,1.24931 1.408153,1.2817 1.428293,0.19531 z M 102.64538,82.765832 c -8.986388,-1.94447 -11.951576,-12.95306 -5.147438,-19.110451 8.138778,-7.365172 21.060838,0.574578 18.243798,11.209611 -1.47315,5.56149 -7.39553,9.13438 -13.09636,7.90084 z"
       id="path4" /></g></svg>
